<svg width="24" height="24" viewBox="0 0 24 24" fill="none" xmlns="http://www.w3.org/2000/svg">
<path d="M12 15.3944C13.2544 15.927 14.6332 16.2404 15.6669 16.3275C17.3781 16.4708 18.6478 16.1462 19.8017 15.5265C22.7212 13.9583 24.0007 11.0016 24.0007 11.0016C21.6162 9.94491 19.4748 9.87605 17.8781 10.2344C16.2354 10.6026 15.1598 11.4288 14.2378 12.3886C12.7948 13.8908 12.0265 15.327 12 15.3958V15.3944Z" fill="url(#paint0_linear_1932_2513)"/>
<path d="M11.9993 15.3958C10.7449 15.9284 9.36619 16.2418 8.33249 16.3289C6.62129 16.4722 5.35151 16.1476 4.19767 15.5279C1.27816 13.9597 0 11.0016 0 11.0016C2.3845 9.94491 4.52595 9.87605 6.1226 10.2344C7.76535 10.6026 8.84096 11.4288 9.76291 12.3886C11.2059 13.8908 11.9742 15.327 12.0007 15.3958H11.9993Z" fill="url(#paint1_linear_1932_2513)"/>
<path d="M11.9993 15.3956C13.3501 15.2255 14.6995 14.8039 15.6382 14.3585C17.1916 13.6221 18.1289 12.7017 18.8204 11.5846C20.5693 8.75862 20.2075 5.55469 20.2075 5.55469C17.6176 5.83855 15.729 6.85594 14.5235 7.96888C13.2845 9.11415 12.7634 10.3704 12.4421 11.6647C11.9393 13.6924 11.9868 15.3225 11.9993 15.3941V15.3956Z" fill="url(#paint2_linear_1932_2513)"/>
<path d="M11.997 15.3956C10.6462 15.2255 9.29676 14.8039 8.35805 14.3585C6.8047 13.6221 5.86738 12.7017 5.17592 11.5846C3.427 8.75862 3.7888 5.55469 3.7888 5.55469C6.37865 5.83855 8.26725 6.85594 9.47277 7.96888C10.7118 9.11415 11.2329 10.3704 11.5541 11.6647C12.057 13.6924 12.0095 15.3225 11.997 15.3941V15.3956Z" fill="url(#paint3_linear_1932_2513)"/>
<path d="M11.9969 15.3935C12.9244 14.3902 13.6871 13.1943 14.1216 12.2458C14.841 10.6776 14.9709 9.36648 14.7865 8.06383C14.3227 4.76715 11.9969 2.54688 11.9969 2.54688C10.1935 4.43832 9.39727 6.43938 9.18494 8.07226C8.96703 9.75011 9.37073 11.05 9.95184 12.25C10.8626 14.1288 11.9396 15.3458 11.9955 15.3935H11.9969Z" fill="url(#paint4_linear_1932_2513)"/>
<path d="M20.3047 18.4609C18.0892 17.534 10.6372 16.0408 3.38656 18.4609C6.00484 20.7119 13.0541 23.8634 20.3047 18.4609Z" fill="#D2D6DB"/>
<defs>
<linearGradient id="paint0_linear_1932_2513" x1="26.136" y1="10.2948" x2="12.2554" y2="15.1808" gradientUnits="userSpaceOnUse">
<stop stop-color="#F6F6F6"/>
<stop offset="1" stop-color="#CDD2D7"/>
</linearGradient>
<linearGradient id="paint1_linear_1932_2513" x1="-2.13556" y1="10.2994" x2="11.7437" y2="15.1849" gradientUnits="userSpaceOnUse">
<stop stop-color="#F6F6F6"/>
<stop offset="1" stop-color="#CDD2D7"/>
</linearGradient>
<linearGradient id="paint2_linear_1932_2513" x1="21.709" y1="3.86907" x2="12.0935" y2="15.0624" gradientUnits="userSpaceOnUse">
<stop stop-color="#F6F6F6"/>
<stop offset="1" stop-color="#C5CAD0"/>
</linearGradient>
<linearGradient id="paint3_linear_1932_2513" x1="2.28967" y1="3.86973" x2="11.9051" y2="15.063" gradientUnits="userSpaceOnUse">
<stop stop-color="#F6F6F6"/>
<stop offset="1" stop-color="#C5CAD0"/>
</linearGradient>
<linearGradient id="paint4_linear_1932_2513" x1="12.0709" y1="0.285852" x2="11.9409" y2="15.0787" gradientUnits="userSpaceOnUse">
<stop stop-color="#F6F6F6"/>
<stop offset="1" stop-color="#CDD2D7"/>
</linearGradient>
</defs>
</svg>
