<svg width="24" height="24" viewBox="0 0 24 24" fill="none" xmlns="http://www.w3.org/2000/svg">
<g clip-path="url(#clip0_175_1088)">
<path d="M12 2C6.477 2 2 6.477 2 12C2 17.523 6.477 22 12 22C17.523 22 22 17.523 22 12C22 6.477 17.523 2 12 2Z" stroke="#121212" stroke-width="1.5" stroke-linecap="round" stroke-linejoin="round"/>
<path d="M4.27344 18.346C4.27344 18.346 6.50244 15.5 12.0024 15.5C17.5024 15.5 19.7324 18.346 19.7324 18.346M12.0024 12C12.7981 12 13.5611 11.6839 14.1238 11.1213C14.6864 10.5587 15.0024 9.79565 15.0024 9C15.0024 8.20435 14.6864 7.44129 14.1238 6.87868C13.5611 6.31607 12.7981 6 12.0024 6C11.2068 6 10.4437 6.31607 9.88112 6.87868C9.31851 7.44129 9.00244 8.20435 9.00244 9C9.00244 9.79565 9.31851 10.5587 9.88112 11.1213C10.4437 11.6839 11.2068 12 12.0024 12Z" stroke="#121212" stroke-width="1.5" stroke-linecap="round" stroke-linejoin="round"/>
</g>
<defs>
<clipPath id="clip0_175_1088">
<rect width="24" height="24" fill="white"/>
</clipPath>
</defs>
</svg>
