<svg width="24" height="24" viewBox="0 0 24 24" fill="none" xmlns="http://www.w3.org/2000/svg">
<path d="M12 15.6482C13.2544 16.1726 14.6332 16.4811 15.6669 16.5669C17.3781 16.708 18.6478 16.3884 19.8017 15.7782C22.7212 14.234 24.0008 11.3228 24.0008 11.3228C21.6162 10.2823 19.4748 10.2145 17.8781 10.5673C16.2354 10.9298 15.1598 11.7434 14.2378 12.6885C12.7948 14.1676 12.0265 15.5817 12 15.6495V15.6482Z" fill="url(#paint0_linear_1932_2522)"/>
<path d="M11.9994 15.6495C10.7449 16.1739 9.3662 16.4825 8.3325 16.5683C6.6213 16.7094 5.35152 16.3898 4.19768 15.7796C1.27816 14.2354 0 11.3228 0 11.3228C2.38451 10.2823 4.52595 10.2145 6.1226 10.5673C7.76536 10.9298 8.84097 11.7434 9.76292 12.6885C11.2059 14.1676 11.9742 15.5817 12.0008 15.6495H11.9994Z" fill="url(#paint1_linear_1932_2522)"/>
<path d="M11.9993 15.6508C13.3501 15.4833 14.6995 15.0682 15.6382 14.6296C17.1916 13.9046 18.1289 12.9983 18.8204 11.8983C20.5693 9.1157 20.2075 5.96094 20.2075 5.96094C17.6177 6.24044 15.729 7.24221 14.5235 8.33808C13.2845 9.46577 12.7634 10.7028 12.4421 11.9771C11.9393 13.9738 11.9868 15.5788 11.9993 15.6494V15.6508Z" fill="url(#paint2_linear_1932_2522)"/>
<path d="M11.997 15.6508C10.6462 15.4833 9.29677 15.0682 8.35805 14.6296C6.8047 13.9046 5.86738 12.9983 5.17592 11.8983C3.427 9.1157 3.7888 5.96094 3.7888 5.96094C6.37865 6.24044 8.26726 7.24221 9.47278 8.33808C10.7118 9.46577 11.2329 10.7028 11.5542 11.9771C12.057 13.9738 12.0095 15.5788 11.997 15.6494V15.6508Z" fill="url(#paint3_linear_1932_2522)"/>
<path d="M11.9969 15.6495C12.9244 14.6615 13.6871 13.484 14.1216 12.5501C14.841 11.0059 14.9709 9.71493 14.7865 8.43228C14.3227 5.18619 11.9969 3 11.9969 3C10.1935 4.86242 9.39727 6.83276 9.18494 8.44058C8.96703 10.0927 9.37073 11.3726 9.95184 12.5542C10.8626 14.4042 11.9396 15.6024 11.9955 15.6495H11.9969Z" fill="url(#paint4_linear_1932_2522)"/>
<path d="M20.1562 18.5681C18.0191 17.5324 10.8305 15.8638 3.83623 18.5681C6.36195 21.0836 13.162 24.6053 20.1562 18.5681Z" fill="#9FD1A3"/>
<defs>
<linearGradient id="paint0_linear_1932_2522" x1="26.136" y1="10.6269" x2="12.3034" y2="15.5719" gradientUnits="userSpaceOnUse">
<stop stop-color="#FFBFBF"/>
<stop offset="1" stop-color="#FF7D7D"/>
</linearGradient>
<linearGradient id="paint1_linear_1932_2522" x1="-2.13556" y1="10.6313" x2="11.6958" y2="15.5759" gradientUnits="userSpaceOnUse">
<stop stop-color="#FFBFBF"/>
<stop offset="1" stop-color="#FF7D7D"/>
</linearGradient>
<linearGradient id="paint2_linear_1932_2522" x1="21.709" y1="4.30119" x2="12.2643" y2="15.4671" gradientUnits="userSpaceOnUse">
<stop stop-color="#FFBFBF"/>
<stop offset="1" stop-color="#FF7D7D"/>
</linearGradient>
<linearGradient id="paint3_linear_1932_2522" x1="2.28966" y1="4.30184" x2="11.7344" y2="15.4678" gradientUnits="userSpaceOnUse">
<stop stop-color="#FFBFBF"/>
<stop offset="1" stop-color="#FF7D7D"/>
</linearGradient>
<linearGradient id="paint4_linear_1932_2522" x1="12.0709" y1="0.77368" x2="11.9448" y2="15.3396" gradientUnits="userSpaceOnUse">
<stop stop-color="#FFBFBF"/>
<stop offset="1" stop-color="#FF7D7D"/>
</linearGradient>
</defs>
</svg>
