<svg width="161" height="125" viewBox="0 0 161 125" fill="none" xmlns="http://www.w3.org/2000/svg">
<g id="Group 2085665367">
<path id="Vector" d="M157.341 3.89634C157.341 3.89634 144.885 -6.53286 133.938 19.4478C133.938 19.4478 157.751 22.2595 157.341 3.89634Z" fill="url(#paint0_linear_4642_6008)"/>
<path id="Vector_2" d="M133.938 19.4539C144.885 -6.52151 157.341 3.90241 157.341 3.90241C157.341 3.90241 149.475 13.0444 133.938 19.4539Z" fill="url(#paint1_linear_4642_6008)"/>
<path id="Vector_3" d="M160.829 0.340457C161.124 0.635872 160.987 0.936562 160.787 1.17395C150.665 13.096 134.723 19.8642 134.365 19.2259C134.05 18.6614 146.054 16.1874 159.751 0.282429C160.04 -0.0551881 160.345 -0.150143 160.829 0.335182V0.340457Z" fill="#B4BCC1"/>
<path id="Vector_4" d="M3.88959 79.7396C3.88959 79.7396 -6.50554 92.2367 19.3903 103.22C19.3903 103.22 22.1928 79.3282 3.88959 79.7396Z" fill="url(#paint2_linear_4642_6008)"/>
<path id="Vector_5" d="M19.3885 103.222C-6.50202 92.2393 3.88785 79.7422 3.88785 79.7422C3.88785 79.7422 13 87.634 19.3885 103.222Z" fill="url(#paint3_linear_4642_6008)"/>
<path id="Vector_6" d="M0.339345 76.2488C0.633794 75.9534 0.933502 76.0906 1.17011 76.291C13.0533 86.4459 19.7993 102.441 19.1631 102.799C18.6005 103.116 16.1345 91.0723 0.281506 77.3302C-0.0550078 77.0401 -0.149652 76.7341 0.334086 76.2488H0.339345Z" fill="#B4BCC1"/>
<path id="Vector_7" d="M58.9349 82.5995L30.5731 67.8182L23.3906 38.8096L34.6218 14.4167L58.9349 3.32812H90.2412L114.554 14.4167L125.791 38.8096L118.608 67.8182L90.2412 82.5995H58.9349Z" fill="url(#paint4_linear_4642_6008)"/>
<path id="Vector_8" d="M90.1641 3.32812L93.9551 16.2736L114.556 14.4167L90.1641 3.32812Z" fill="url(#paint5_linear_4642_6008)"/>
<path id="Vector_9" d="M93.8973 71.1859L118.61 67.8203L90.1641 82.533L93.8973 71.1859Z" fill="url(#paint6_linear_4642_6008)"/>
<path id="Vector_10" d="M55.2934 71.1859L30.5859 67.8203L59.0266 82.533L55.2934 71.1859Z" fill="url(#paint7_linear_4642_6008)"/>
<path id="Vector_11" d="M125.794 38.8125H96.9218L93.8984 71.1868L118.611 67.8212L125.794 38.8125Z" fill="url(#paint8_linear_4642_6008)"/>
<path id="Vector_12" d="M96.9212 38.8125L52.3594 38.8442L55.3827 71.2185L93.8978 71.1868L96.9212 38.8125Z" fill="url(#paint9_linear_4642_6008)"/>
<path id="Vector_13" d="M93.9557 16.2734L55.3249 16.3051L52.3594 38.841L96.9212 38.8094L93.9557 16.2734Z" fill="url(#paint10_linear_4642_6008)"/>
<path id="Vector_14" d="M90.2467 3.32812H58.9404L55.3281 16.3053L93.9589 16.2736L90.2467 3.32812Z" fill="url(#paint11_linear_4642_6008)"/>
<path id="Vector_15" d="M58.9404 82.6032H90.2467L93.9589 71.1875L55.3281 71.2192L58.9404 82.6032Z" fill="url(#paint12_linear_4642_6008)"/>
<path id="Vector_16" d="M125.791 38.8147H96.9187L93.9531 16.2788L114.554 14.4219L125.791 38.8147Z" fill="url(#paint13_linear_4642_6008)"/>
<path id="Vector_17" d="M59.1186 3.35938L55.3275 16.2996L34.7266 14.4427L59.1186 3.35938Z" fill="url(#paint14_linear_4642_6008)"/>
<path id="Vector_18" d="M23.3906 38.8438H52.2572L55.2806 71.2181L30.5731 67.8524L23.3906 38.8438Z" fill="url(#paint15_linear_4642_6008)"/>
<path id="Vector_19" d="M23.3906 38.8459H52.2572L55.2227 16.31L34.6218 14.4531L23.3906 38.8459Z" fill="url(#paint16_linear_4642_6008)"/>
<path id="Vector_20" d="M65.7969 85.1928C65.7969 85.1928 66.2438 117.419 92.5602 120.732C92.5602 120.732 88.6167 115.668 88.8744 108.251C88.8744 108.251 75.0615 99.6892 74.9616 85.2719L65.7969 85.1875V85.1928Z" fill="#959DA3"/>
<path id="Vector_21" d="M65.4758 40.1622C66.347 40.1622 67.0533 38.816 67.0533 37.1553C67.0533 35.4947 66.347 34.1484 65.4758 34.1484C64.6047 34.1484 63.8984 35.4947 63.8984 37.1553C63.8984 38.816 64.6047 40.1622 65.4758 40.1622Z" fill="#32383D"/>
<path id="Vector_22" d="M80.4758 40.1622C81.347 40.1622 82.0533 38.816 82.0533 37.1553C82.0533 35.4947 81.347 34.1484 80.4758 34.1484C79.6047 34.1484 78.8984 35.4947 78.8984 37.1553C78.8984 38.816 79.6047 40.1622 80.4758 40.1622Z" fill="#32383D"/>
<path id="Vector_23" d="M67.5206 45.6522C68.9928 47.0871 70.8647 47.9628 72.9416 47.9839C75.0185 48.005 77.0692 47.1504 78.5046 45.6522C78.9936 45.1405 79.0146 44.3017 78.5046 43.79C77.9946 43.2783 77.1428 43.2783 76.6485 43.79C76.1227 44.3387 75.6863 44.6604 74.9029 44.9981C75.1027 44.9137 74.845 45.0139 74.803 45.0297C74.7031 45.0666 74.6032 45.0983 74.5033 45.1299C74.3034 45.1932 74.0984 45.2407 73.8933 45.2829C73.8092 45.2987 73.7303 45.3146 73.6462 45.3251C73.8881 45.2829 73.6094 45.3251 73.5621 45.3304C73.357 45.3462 73.1467 45.3568 72.9364 45.3515C72.7471 45.3515 72.563 45.3357 72.3737 45.3199C72.1266 45.2988 72.4369 45.3357 72.2896 45.3093C72.1845 45.2882 72.0846 45.2724 71.9847 45.2513C71.8006 45.2091 71.6166 45.1616 71.4378 45.1036C71.3379 45.0719 71.238 45.035 71.1381 44.9981C70.9225 44.9242 71.1644 45.0192 71.0435 44.9611C70.6701 44.7871 70.3231 44.5813 69.9866 44.3439C69.8131 44.2226 69.9866 44.3439 69.8867 44.2648C69.8026 44.1909 69.7184 44.1224 69.6343 44.0432C69.5449 43.9588 69.4608 43.8744 69.3714 43.79C68.8614 43.2942 68.0254 43.2836 67.5153 43.79C67.0053 44.2965 67.0053 45.1563 67.5153 45.6522H67.5206Z" fill="#32383D"/>
<path id="Vector_24" d="M87.0968 82.5312H62.0791C61.5651 82.5312 61.1484 82.9493 61.1484 83.465V84.3301C61.1484 84.8458 61.5651 85.2638 62.0791 85.2638H87.0968C87.6108 85.2638 88.0275 84.8458 88.0275 84.3301V83.465C88.0275 82.9493 87.6108 82.5312 87.0968 82.5312Z" fill="#B4BCC1"/>
<path id="Vector_25" d="M86.8531 0.601562H61.4463C60.9323 0.601562 60.5156 1.0196 60.5156 1.53528V2.40043C60.5156 2.91611 60.9323 3.33415 61.4463 3.33415H86.8531C87.3671 3.33415 87.7838 2.91611 87.7838 2.40043V1.53528C87.7838 1.0196 87.3671 0.601562 86.8531 0.601562Z" fill="#B4BCC1"/>
<path id="Vector_26" d="M62.2466 85.2656H68.7508C68.7508 85.2656 67.0104 96.0483 59.2969 105.08C59.2969 105.08 62.8566 90.5303 62.2519 85.2656H62.2466Z" fill="url(#paint17_linear_4642_6008)"/>
<path id="Vector_27" d="M49.4494 102.022C49.4494 102.022 49.7702 112.166 45.9844 118.038C45.9844 118.038 61.4693 109.239 67.3846 90.4375C67.3846 90.4375 63.1676 98.9465 49.4494 102.022Z" fill="#ADB6BC"/>
<path id="Vector_28" d="M81.8359 85.2659C82.4143 85.1973 90.1015 97.9265 90.7062 106.019C90.7062 106.019 87.6933 100.664 84.3072 96.2437C81.6466 92.7726 80.248 89.3384 74.9531 85.2817L81.8306 85.2659H81.8359Z" fill="url(#paint18_linear_4642_6008)"/>
<path id="Vector_29" d="M87.2319 124.998C87.2319 124.998 85.7859 118.409 81.9844 114.758C81.9844 114.758 86.622 103.195 84.3032 96.2422C84.3032 96.2422 90.4551 104.493 90.7022 106.017C90.9861 107.8 92.1219 114.437 87.2319 124.998Z" fill="#A6AEB2"/>
<path id="Vector_30" d="M74.9591 85.2789C74.9591 85.2789 71.1575 105.71 66.0625 110.616C66.0625 110.616 72.0093 116.53 69.9219 124.991C69.9219 124.991 83.109 103.843 86.5057 85.2578L74.9591 85.2736V85.2789Z" fill="url(#paint19_linear_4642_6008)"/>
<path id="Vector_31" d="M70.6435 36.1654C70.3228 37.4368 69.9968 38.7081 69.6761 39.9742L69.5393 40.5123C69.3711 41.1769 69.7549 41.9735 70.4542 42.1318C71.1536 42.29 71.8844 41.926 72.0685 41.2139C72.3892 39.9425 72.7152 38.6712 73.0359 37.4051L73.1726 36.867C73.3409 36.2024 72.9571 35.4058 72.2577 35.2475C71.5584 35.0893 70.8276 35.4533 70.6435 36.1654Z" fill="#32383D"/>
</g>
<defs>
<linearGradient id="paint0_linear_4642_6008" x1="145.642" y1="19.6008" x2="145.642" y2="1.82844" gradientUnits="userSpaceOnUse">
<stop stop-color="#CDD2D7"/>
<stop offset="1" stop-color="#B9BEC5"/>
</linearGradient>
<linearGradient id="paint1_linear_4642_6008" x1="141.735" y1="12.2268" x2="159.79" y2="-3.64062" gradientUnits="userSpaceOnUse">
<stop stop-color="#D9DADB"/>
<stop offset="1" stop-color="#C7CCD3"/>
</linearGradient>
<linearGradient id="paint2_linear_4642_6008" x1="19.548" y1="91.4824" x2="1.8337" y2="91.4824" gradientUnits="userSpaceOnUse">
<stop stop-color="#CDD2D7"/>
<stop offset="1" stop-color="#B9BEC5"/>
</linearGradient>
<linearGradient id="paint3_linear_4642_6008" x1="12.1903" y1="95.3992" x2="-3.74219" y2="77.3884" gradientUnits="userSpaceOnUse">
<stop stop-color="#D9DADB"/>
<stop offset="1" stop-color="#C7CCD3"/>
</linearGradient>
<linearGradient id="paint4_linear_4642_6008" x1="23.3906" y1="42.9665" x2="125.791" y2="42.9665" gradientUnits="userSpaceOnUse">
<stop stop-color="#D9DADB"/>
<stop offset="1" stop-color="#C7CCD3"/>
</linearGradient>
<linearGradient id="paint5_linear_4642_6008" x1="90.632" y1="8.02839" x2="112.169" y2="19.5173" gradientUnits="userSpaceOnUse">
<stop stop-color="#D9DADB"/>
<stop offset="1" stop-color="#C8CBCE"/>
</linearGradient>
<linearGradient id="paint6_linear_4642_6008" x1="93.8762" y1="68.9123" x2="105.258" y2="75.653" gradientUnits="userSpaceOnUse">
<stop stop-color="#D9DADB"/>
<stop offset="1" stop-color="#C8CBCE"/>
</linearGradient>
<linearGradient id="paint7_linear_4642_6008" x1="55.3145" y1="68.9123" x2="43.9325" y2="75.653" gradientUnits="userSpaceOnUse">
<stop stop-color="#D9DADB"/>
<stop offset="1" stop-color="#C8CBCE"/>
</linearGradient>
<linearGradient id="paint8_linear_4642_6008" x1="96.3539" y1="40.5428" x2="118.224" y2="63.825" gradientUnits="userSpaceOnUse">
<stop stop-color="#D9DADB"/>
<stop offset="1" stop-color="#C8CBCE"/>
</linearGradient>
<linearGradient id="paint9_linear_4642_6008" x1="74.6534" y1="41.0756" x2="74.8069" y2="69.6833" gradientUnits="userSpaceOnUse">
<stop stop-color="#D9DADB"/>
<stop offset="1" stop-color="#C8CBCE"/>
</linearGradient>
<linearGradient id="paint10_linear_4642_6008" x1="74.7638" y1="16.9592" x2="74.6262" y2="41.6369" gradientUnits="userSpaceOnUse">
<stop stop-color="#D9DADB"/>
<stop offset="1" stop-color="#C8CBCE"/>
</linearGradient>
<linearGradient id="paint11_linear_4642_6008" x1="63.6463" y1="0.0205344" x2="83.9498" y2="21.6356" gradientUnits="userSpaceOnUse">
<stop stop-color="#D9DADB"/>
<stop offset="1" stop-color="#C8CBCE"/>
</linearGradient>
<linearGradient id="paint12_linear_4642_6008" x1="74.5778" y1="72.9547" x2="78.5635" y2="81.2848" gradientUnits="userSpaceOnUse">
<stop stop-color="#D9DADB"/>
<stop offset="1" stop-color="#C8CBCE"/>
</linearGradient>
<linearGradient id="paint13_linear_4642_6008" x1="95.3886" y1="18.2412" x2="120.223" y2="38.213" gradientUnits="userSpaceOnUse">
<stop stop-color="#D9DADB"/>
<stop offset="1" stop-color="#C8CBCE"/>
</linearGradient>
<linearGradient id="paint14_linear_4642_6008" x1="58.6559" y1="8.05436" x2="37.114" y2="19.5433" gradientUnits="userSpaceOnUse">
<stop stop-color="#D9DADB"/>
<stop offset="1" stop-color="#C8CBCE"/>
</linearGradient>
<linearGradient id="paint15_linear_4642_6008" x1="52.8251" y1="40.574" x2="30.9545" y2="63.8615" gradientUnits="userSpaceOnUse">
<stop stop-color="#D9DADB"/>
<stop offset="1" stop-color="#C8CBCE"/>
</linearGradient>
<linearGradient id="paint16_linear_4642_6008" x1="53.7926" y1="18.2724" x2="28.9528" y2="38.2495" gradientUnits="userSpaceOnUse">
<stop stop-color="#D9DADB"/>
<stop offset="1" stop-color="#C8CBCE"/>
</linearGradient>
<linearGradient id="paint17_linear_4642_6008" x1="59.2916" y1="95.1726" x2="68.7456" y2="95.1726" gradientUnits="userSpaceOnUse">
<stop stop-color="#D4D6D8"/>
<stop offset="1" stop-color="#C7CCD3"/>
</linearGradient>
<linearGradient id="paint18_linear_4642_6008" x1="74.9584" y1="95.6423" x2="90.7062" y2="95.6423" gradientUnits="userSpaceOnUse">
<stop stop-color="#CDD2D7"/>
<stop offset="1" stop-color="#B9BEC5"/>
</linearGradient>
<linearGradient id="paint19_linear_4642_6008" x1="66.0625" y1="105.13" x2="86.5057" y2="105.13" gradientUnits="userSpaceOnUse">
<stop offset="0.08" stop-color="#D4D6D8"/>
<stop offset="1" stop-color="#C7CCD3"/>
</linearGradient>
</defs>
</svg>
