<svg width="24" height="24" viewBox="0 0 24 24" fill="none" xmlns="http://www.w3.org/2000/svg">
<path fill-rule="evenodd" clip-rule="evenodd" d="M3.45953 5.01462C4.39434 4.08452 5.66206 3.56202 6.98389 3.56202C8.30572 3.56202 9.57343 4.08452 10.5082 5.01462L11.9688 6.46703L13.4294 5.01462C13.8893 4.54077 14.4393 4.16281 15.0475 3.90279C15.6557 3.64277 16.3098 3.50591 16.9717 3.50019C17.6336 3.49446 18.29 3.61999 18.9027 3.86945C19.5153 4.11891 20.0719 4.4873 20.5399 4.95312C21.008 5.41895 21.3781 5.97289 21.6288 6.58261C21.8794 7.19233 22.0056 7.84563 21.9998 8.50439C21.9941 9.16314 21.8565 9.81416 21.5953 10.4195C21.334 11.0248 20.9543 11.5722 20.4782 12.0299L11.9688 20.5L3.45953 12.0299C2.52499 11.0995 2 9.83779 2 8.52224C2 7.20669 2.52499 5.945 3.45953 5.01462Z" fill="#FF9999" stroke="#FF8B8B" stroke-width="0.8" stroke-linejoin="round"/>
</svg>
