<svg width="24" height="24" viewBox="0 0 24 24" fill="none" xmlns="http://www.w3.org/2000/svg">
<path fill-rule="evenodd" clip-rule="evenodd" d="M3.40537 5.46538C4.30551 4.56552 5.52619 4.06001 6.79897 4.06001C8.07176 4.06001 9.29244 4.56552 10.1926 5.46538L11.599 6.87058L13.0054 5.46538C13.4482 5.00693 13.9778 4.64126 14.5634 4.3897C15.149 4.13813 15.7789 4.00572 16.4162 4.00018C17.0536 3.99464 17.6856 4.11609 18.2756 4.35744C18.8655 4.59879 19.4014 4.9552 19.8521 5.40589C20.3028 5.85657 20.6592 6.3925 20.9005 6.9824C21.1419 7.57231 21.2633 8.20437 21.2578 8.84171C21.2522 9.47905 21.1198 10.1089 20.8683 10.6945C20.6167 11.2801 20.251 11.8098 19.7926 12.2526L11.599 20.4474L3.40537 12.2526C2.50551 11.3525 2 10.1318 2 8.85898C2 7.5862 2.50551 6.36552 3.40537 5.46538V5.46538Z" stroke="#121212" stroke-width="1.6" stroke-linejoin="round"/>
</svg>
