<svg width="20" height="20" viewBox="0 0 20 20" fill="none" xmlns="http://www.w3.org/2000/svg">
<path fill-rule="evenodd" clip-rule="evenodd" d="M2.88326 4.59556C3.66228 3.82048 4.71871 3.38506 5.82023 3.38506C6.92176 3.38506 7.97819 3.82048 8.7572 4.59556L9.97436 5.8059L11.1915 4.59556C11.5747 4.20068 12.0331 3.88571 12.5399 3.66903C13.0467 3.45235 13.5919 3.3383 14.1434 3.33353C14.695 3.32876 15.242 3.43337 15.7526 3.64125C16.2631 3.84913 16.7269 4.15612 17.1169 4.54431C17.507 4.9325 17.8154 5.39411 18.0243 5.90222C18.2332 6.41032 18.3383 6.95473 18.3335 7.5037C18.3287 8.05266 18.2141 8.59517 17.9964 9.09959C17.7787 9.604 17.4622 10.0602 17.0655 10.4416L9.97436 17.5L2.88326 10.4416C2.10449 9.66628 1.66699 8.61487 1.66699 7.51857C1.66699 6.42228 2.10449 5.37087 2.88326 4.59556Z" fill="#E1E4E7" stroke="#CDD2D7" stroke-width="0.666667" stroke-linejoin="round"/>
</svg>
