<svg width="95" height="33" viewBox="0 0 95 33" fill="none" xmlns="http://www.w3.org/2000/svg">
<path d="M25.0459 17.2212C25.2757 14.4171 25.2166 3.85475 25.0459 1.43469H28.3904V17.2212H25.0459Z" fill="#121212"/>
<path d="M36.0473 28.0843L35.6963 25.854C40.0045 25.854 45.3595 26.6647 44.5601 19.605H48.0306C48.0306 24.8884 46.9136 28.2543 36.0473 28.0828V28.0843Z" fill="#121212"/>
<path d="M28.1242 1.96155H25.1388C25.4739 7.93578 22.5459 7.96766 17.4111 7.96766V10.954C26.9339 10.954 28.1242 8.25916 28.1242 1.96155Z" fill="#121212"/>
<path d="M92.9659 13.443L92.9818 16.402C90.3762 16.402 86.687 16.7178 86.687 22.3186L83.6904 22.3535C83.6904 17.3236 85.7823 13.3079 92.9659 13.443Z" fill="#121212"/>
<path d="M32.5391 25.8259C38.1621 25.873 59.9697 25.8259 59.9697 25.8259V29.125C51.9324 28.8745 40.6784 28.7895 32.5391 29.125V25.8259Z" fill="#121212"/>
<path d="M28.4169 26.4347C19.6505 25.9792 18.7489 26.0354 10.2953 26.4347L10.2234 28.7484H28.9674L29.0392 31.8213C21.8759 31.6209 14.5285 31.6209 6.99707 31.8213C7.30343 28.4524 7.06887 23.3496 7.06887 23.3496H25.3054L25.2336 21.2332C19.6249 21.0434 13.9445 21.0783 7.08802 21.3197L7.01622 18.215H28.3451C28.2063 22.4144 28.2015 22.3886 28.4169 26.4362V26.4347Z" fill="#121212"/>
<path d="M35.3428 10.2704H53.8777V7.46166C46.391 6.69343 35.3699 7.46166 35.3699 7.46166V4.23694H56.9078C56.7929 5.5411 56.8169 11.9678 56.9078 13.4435C56.9078 13.4435 47.6276 12.7466 38.534 13.4435V16.776H57.4407V19.8929C47.7058 19.3114 35.3444 19.8929 35.3444 19.8929C35.472 17.5533 35.5167 13.3038 35.3444 10.2734L35.3428 10.2704Z" fill="#121212"/>
<path d="M19.1732 5.82022C9.58983 5.34957 11.8748 5.34957 2.17969 5.82022V2.94469L19.1732 2.85815V5.82022Z" fill="#121212"/>
<path d="M19.4215 13.0473V16.0291C15.5202 16.3251 9.97852 14.5123 9.97852 7.30835H12.5666C12.8012 12.7239 17.494 13.196 19.4215 13.0473Z" fill="#121212"/>
<path d="M1.50781 13.7227V16.7137C7.23455 16.7137 11.4965 13.6833 11.4965 7.30823H8.88125C8.88125 12.6721 3.4497 13.8047 1.50781 13.7227Z" fill="#121212"/>
<path d="M8.88281 7.30362L9.00887 4.87598H12.4299L12.5655 7.30362H8.88281Z" fill="#121212"/>
<path d="M63.7684 26.8602L62.6387 23.3698C69.7552 22.3101 76.4585 17.6036 75.375 6.66625L78.9588 6.57971C78.9588 11.0509 78.52 14.643 76.484 18.3688C74.1783 22.5879 70.0935 25.1021 63.7684 26.8602Z" fill="#121212"/>
<path d="M78.9573 7.78092C73.7539 7.60329 68.6175 7.58507 64.1338 7.78092V4.65186H78.9573V7.78092Z" fill="#121212"/>
<path d="M86.688 31.7001H83.1729C83.492 24.7391 83.5335 8.03248 83.1729 1.74854H86.688V31.7001Z" fill="#121212"/>
</svg>
