<svg width="89" height="27" viewBox="0 0 89 27" fill="none" xmlns="http://www.w3.org/2000/svg">
<g clip-path="url(#clip0_7713_17972)">
<path d="M85.6303 10.3138H88.0385V20.6588H85.6303L85.4418 19.4023C84.5832 20.3656 83.3267 20.8891 81.8608 20.8891C78.8872 20.8891 76.835 18.6694 76.835 15.4863C76.835 12.3033 78.8872 10.0835 81.8608 10.0835C83.3267 10.0835 84.6041 10.607 85.4418 11.5494L85.6303 10.3138ZM82.4263 18.46C84.1015 18.46 85.2743 17.2244 85.2743 15.4863C85.2743 13.7482 84.1015 12.5127 82.4263 12.5127C80.7719 12.5127 79.5992 13.7482 79.5992 15.4863C79.5992 17.2244 80.7719 18.46 82.4263 18.46Z" fill="black"/>
<path d="M75.2152 15.2768C75.2152 16.973 74.3776 18.3342 72.8489 19.1299C74.3567 19.7582 75.2152 20.9099 75.2152 22.4177C75.2152 25.0354 73.0164 26.7316 69.624 26.7316C66.1268 26.7316 63.928 24.805 64.1164 21.9779H66.8178C66.776 23.4229 67.844 24.3234 69.624 24.3234C71.2783 24.3234 72.3882 23.5276 72.3882 22.3549C72.3882 21.1612 71.383 20.4702 69.6658 20.4702C66.2105 20.4702 64.0117 18.4389 64.0117 15.2768C64.0117 12.2403 66.3362 10.0624 69.603 10.0624C70.5663 10.0624 71.4668 10.2718 72.1997 10.6697L73.4771 9.09912L75.4875 10.6069L74.0844 12.2612C74.8802 13.1827 75.2152 14.1041 75.2152 15.2768ZM69.624 18.041C71.3411 18.041 72.472 16.9102 72.472 15.2768C72.472 13.6015 71.3411 12.4916 69.624 12.4916C67.9068 12.4916 66.776 13.6015 66.776 15.2768C66.776 16.9102 67.9277 18.041 69.624 18.041Z" fill="black"/>
<path d="M57.0063 20.8891C53.5929 20.8891 51.415 18.6484 51.415 15.4863C51.415 12.3242 53.5929 10.0835 57.0063 10.0835C60.4197 10.0835 62.5976 12.3242 62.5976 15.4863C62.5976 18.6484 60.4197 20.8891 57.0063 20.8891ZM57.0063 18.46C58.7235 18.46 59.8334 17.1407 59.8334 15.4863C59.8334 13.832 58.7235 12.5127 57.0063 12.5127C55.2892 12.5127 54.1793 13.832 54.1793 15.4863C54.1793 17.1407 55.2892 18.46 57.0063 18.46Z" fill="black"/>
<path d="M46.583 20.6588V6H49.3682V20.6588H46.583Z" fill="black"/>
<path d="M41.1221 20.6588V6H43.9072V20.6588H41.1221Z" fill="black"/>
<path d="M33.4878 20.8891C30.0744 20.8891 27.8965 18.6484 27.8965 15.4863C27.8965 12.3242 30.0744 10.0835 33.4878 10.0835C36.9012 10.0835 39.0791 12.3242 39.0791 15.4863C39.0791 18.6484 36.9012 20.8891 33.4878 20.8891ZM33.4878 18.46C35.205 18.46 36.3148 17.1407 36.3148 15.4863C36.3148 13.832 35.205 12.5127 33.4878 12.5127C31.7706 12.5127 30.6607 13.832 30.6607 15.4863C30.6607 17.1407 31.7706 18.46 33.4878 18.46Z" fill="black"/>
<path d="M21.1322 10.1045C24.8807 10.1045 26.9539 12.5756 26.4931 16.4078H18.5146C18.703 17.7061 19.8339 18.5647 21.5091 18.5647C22.619 18.5647 23.7289 18.1878 24.399 17.5805L25.9487 19.172C24.8597 20.2819 23.2054 20.9311 21.4044 20.9311C17.9073 20.9311 15.6875 18.816 15.6875 15.5073C15.6875 12.2824 17.8863 10.1045 21.1322 10.1045ZM21.216 12.3871C19.7501 12.3871 18.7659 13.1828 18.5564 14.565H23.8755C23.7708 13.2247 22.7656 12.3871 21.216 12.3871Z" fill="black"/>
<path d="M6.31906 6H13.7322V14.5649C13.7322 18.4391 11.1984 20.952 7.34518 20.952C3.42918 20.952 1.02094 18.5438 1 14.5649H3.86894C3.88988 16.9732 5.14635 18.3134 7.34518 18.3134C9.48118 18.3134 10.8424 16.8685 10.8424 14.4812V8.59671H6.31906V6Z" fill="black"/>
</g>
<defs>
<clipPath id="clip0_7713_17972">
<rect width="89" height="27" fill="white"/>
</clipPath>
</defs>
</svg>
