<svg width="55" height="19" viewBox="0 0 55 19" fill="none" xmlns="http://www.w3.org/2000/svg">
<path d="M14.5 9.91735C14.633 8.30282 14.5988 2.22149 14.5 0.828125H16.4363V9.91735H14.5Z" fill="#121212"/>
<path d="M20.8673 16.1711L20.6641 14.887C23.1583 14.887 26.2585 15.3538 25.7957 11.2891H27.805C27.805 14.331 27.1583 16.269 20.8673 16.1702V16.1711Z" fill="#121212"/>
<path d="M16.2883 1.13281H14.5599C14.7538 4.57252 13.0587 4.59088 10.0859 4.59088V6.31029C15.5991 6.31029 16.2883 4.75871 16.2883 1.13281Z" fill="#121212"/>
<path d="M53.8231 7.74409L53.8324 9.44778C52.3238 9.44778 50.188 9.6296 50.188 12.8543L48.4531 12.8744C48.4531 9.97837 49.6642 7.6663 53.8231 7.74409Z" fill="#121212"/>
<path d="M18.8438 14.875C22.0992 14.9021 34.7246 14.875 34.7246 14.875V16.7745C30.0715 16.6303 23.556 16.5813 18.8438 16.7745V14.875Z" fill="#121212"/>
<path d="M16.4556 15.2247C11.3803 14.9625 10.8584 14.9948 5.96416 15.2247L5.92259 16.5569H16.7743L16.8159 18.3262C12.6687 18.2108 8.41498 18.2108 4.05469 18.3262C4.23206 16.3865 4.09626 13.4485 4.09626 13.4485H14.6543L14.6127 12.23C11.3656 12.1207 8.07687 12.1408 4.10734 12.2798L4.06577 10.4922H16.4141C16.3337 12.91 16.3309 12.8952 16.4556 15.2256V15.2247Z" fill="#121212"/>
<path d="M20.4609 5.91911H31.1917V4.30197C26.8573 3.85966 20.4766 4.30197 20.4766 4.30197V2.44531H32.946C32.8794 3.19619 32.8933 6.89639 32.946 7.74605C32.946 7.74605 27.5732 7.34482 22.3085 7.74605V9.66476H33.2545V11.4594C27.6185 11.1246 20.4619 11.4594 20.4619 11.4594C20.5358 10.1123 20.5616 7.66563 20.4619 5.92086L20.4609 5.91911Z" fill="#121212"/>
<path d="M11.104 3.35387C5.5557 3.08289 6.87857 3.08289 1.26562 3.35387V1.69826L11.104 1.64844V3.35387Z" fill="#121212"/>
<path d="M11.2482 7.51515V9.23195C8.98957 9.4024 5.78125 8.35869 5.78125 4.21094H7.27964C7.41543 7.32896 10.1323 7.60082 11.2482 7.51515Z" fill="#121212"/>
<path d="M0.875 7.90414V9.62618C4.19048 9.62618 6.65792 7.88142 6.65792 4.21094H5.14383C5.14383 7.29924 1.99925 7.95135 0.875 7.90414Z" fill="#121212"/>
<path d="M5.14844 4.21024L5.22142 2.8125H7.20202L7.28054 4.21024H5.14844Z" fill="#121212"/>
<path d="M36.9197 15.4657L36.2656 13.4561C40.3857 12.8459 44.2666 10.1361 43.6393 3.83889L45.7141 3.78906C45.7141 6.36338 45.4601 8.43157 44.2813 10.5767C42.9465 13.0059 40.5816 14.4535 36.9197 15.4657Z" fill="#121212"/>
<path d="M45.7148 4.48127C42.7023 4.379 39.7287 4.36851 37.1328 4.48127V2.67969H45.7148V4.48127Z" fill="#121212"/>
<path d="M50.1914 18.2527H48.1562C48.341 14.2448 48.365 4.62584 48.1562 1.00781H50.1914V18.2527Z" fill="#121212"/>
</svg>
