<svg width="39" height="14" viewBox="0 0 39 14" fill="none" xmlns="http://www.w3.org/2000/svg">
<path d="M10.6641 7.44508C10.7584 6.30024 10.7342 1.98802 10.6641 1H12.037V7.44508H10.6641Z" fill="#484D54"/>
<path d="M15.1754 11.8759L15.0312 10.9653C16.7999 10.9653 18.9982 11.2963 18.6701 8.41406H20.0948C20.0948 10.5711 19.6363 11.9453 15.1754 11.8752V11.8759Z" fill="#484D54"/>
<path d="M11.9293 1.21875H10.7037C10.8412 3.65782 9.6392 3.67083 7.53125 3.67083V4.89005C11.4406 4.89005 11.9293 3.78984 11.9293 1.21875Z" fill="#484D54"/>
<path d="M38.5422 5.9076L38.5487 7.11567C37.479 7.11567 35.9646 7.24459 35.9646 9.53118L34.7344 9.54544C34.7344 7.49191 35.5931 5.85244 38.5422 5.9076Z" fill="#484D54"/>
<path d="M13.7422 10.9609C16.0506 10.9802 25.0032 10.9609 25.0032 10.9609V12.3078C21.7037 12.2056 17.0836 12.1709 13.7422 12.3078V10.9609Z" fill="#484D54"/>
<path d="M12.0512 11.2074C8.45237 11.0214 8.08226 11.0444 4.6118 11.2074L4.58233 12.152H12.2772L12.3067 13.4066C9.36594 13.3247 6.34965 13.3247 3.25781 13.4066C3.38358 12.0311 3.28729 9.94786 3.28729 9.94786H10.7739L10.7444 9.0838C8.44189 9.00632 6.1099 9.02058 3.29515 9.11913L3.26567 7.85156H12.0217C11.9648 9.56604 11.9628 9.5555 12.0512 11.208V11.2074Z" fill="#484D54"/>
<path d="M14.8906 4.61168H22.4997V3.46497C19.4262 3.15134 14.9018 3.46497 14.9018 3.46497V2.14844H23.7436C23.6965 2.68088 23.7063 5.30466 23.7436 5.90714C23.7436 5.90714 19.9339 5.62263 16.2007 5.90714V7.26769H23.9624V8.54021C19.966 8.30282 14.8913 8.54021 14.8913 8.54021C14.9437 7.58504 14.962 5.85011 14.8913 4.61292L14.8906 4.61168Z" fill="#484D54"/>
<path d="M8.24973 2.78743C4.31549 2.59528 5.25353 2.59528 1.27344 2.78743V1.61346L8.24973 1.57812V2.78743Z" fill="#484D54"/>
<path d="M8.35315 5.74143V6.95879C6.75155 7.07966 4.47656 6.33957 4.47656 3.39844H5.53906C5.63535 5.6094 7.56185 5.80217 8.35315 5.74143Z" fill="#484D54"/>
<path d="M1 6.01726V7.23834C3.35098 7.23834 5.10062 6.00114 5.10062 3.39844H4.02699C4.02699 5.58833 1.7972 6.05073 1 6.01726Z" fill="#484D54"/>
<path d="M4.03125 3.39737L4.083 2.40625H5.48743L5.54311 3.39737H4.03125Z" fill="#484D54"/>
<path d="M26.5575 11.3814L26.0938 9.95636C29.0153 9.52371 31.7671 7.60221 31.3224 3.13689L32.7936 3.10156C32.7936 4.92699 32.6135 6.39353 31.7776 7.91461C30.8311 9.63714 29.1541 10.6636 26.5575 11.3814Z" fill="#484D54"/>
<path d="M32.7964 3.58999C30.6602 3.51747 28.5516 3.51003 26.7109 3.58999V2.3125H32.7964V3.58999Z" fill="#484D54"/>
<path d="M35.9665 13.3532H34.5234C34.6544 10.5112 34.6715 3.69051 34.5234 1.125H35.9665V13.3532Z" fill="#484D54"/>
</svg>
